<?xml version="1.0" standalone="no"?>
<svg xmlns:xlink="http://www.w3.org/1999/xlink" id="wave" style="transform:rotate(0deg); transition: 0.3s" viewBox="0 0 1440 130" version="1.1" xmlns="http://www.w3.org/2000/svg"><defs><linearGradient id="sw-gradient-0" x1="0" x2="0" y1="1" y2="0"><stop stop-color="rgba(0, 0, 0, 1)" offset="0%"/><stop stop-color="rgba(0, 0, 0, 1)" offset="100%"/></linearGradient></defs><path style="transform:translate(0, 0px); opacity:1" fill="url(#sw-gradient-0)" d="M0,52L40,45.5C80,39,160,26,240,28.2C320,30,400,48,480,62.8C560,78,640,91,720,86.7C800,82,880,61,960,60.7C1040,61,1120,82,1200,80.2C1280,78,1360,52,1440,54.2C1520,56,1600,87,1680,93.2C1760,100,1840,82,1920,62.8C2000,43,2080,22,2160,13C2240,4,2320,9,2400,13C2480,17,2560,22,2640,19.5C2720,17,2800,9,2880,4.3C2960,0,3040,0,3120,19.5C3200,39,3280,78,3360,80.2C3440,82,3520,48,3600,39C3680,30,3760,48,3840,45.5C3920,43,4000,22,4080,15.2C4160,9,4240,17,4320,28.2C4400,39,4480,52,4560,62.8C4640,74,4720,82,4800,71.5C4880,61,4960,30,5040,34.7C5120,39,5200,78,5280,78C5360,78,5440,39,5520,32.5C5600,26,5680,52,5720,65L5760,78L5760,130L5720,130C5680,130,5600,130,5520,130C5440,130,5360,130,5280,130C5200,130,5120,130,5040,130C4960,130,4880,130,4800,130C4720,130,4640,130,4560,130C4480,130,4400,130,4320,130C4240,130,4160,130,4080,130C4000,130,3920,130,3840,130C3760,130,3680,130,3600,130C3520,130,3440,130,3360,130C3280,130,3200,130,3120,130C3040,130,2960,130,2880,130C2800,130,2720,130,2640,130C2560,130,2480,130,2400,130C2320,130,2240,130,2160,130C2080,130,2000,130,1920,130C1840,130,1760,130,1680,130C1600,130,1520,130,1440,130C1360,130,1280,130,1200,130C1120,130,1040,130,960,130C880,130,800,130,720,130C640,130,560,130,480,130C400,130,320,130,240,130C160,130,80,130,40,130L0,130Z"/></svg>